# xmcd CD database file
#
# Track frame offsets:
#	150
#	16723
#	38084
#	51605
#	74278
#	99603
#	117034
#	130934
#	156268
#	176906
#	196354
#	222292
#	242190
#	266196
#
# Disc length: 3763 seconds
#
# Revision: 0
# Processed by: cddbd v1.5.2PL0 Copyright (c) Steve Scherf et al.
# Submitted via: CDex 1.70beta2
#
DISCID=d00eb10e
DTITLE=C-CLAYS - 神樂～KAGURA～
DYEAR=2008
DGENRE=東方アレンジ
TTITLE0=墨染めの蝶 [ 幽雅に咲かせ、墨染の桜 ]
TTITLE1=Shiny Up！[ 東方妖怪小町 ]
TTITLE2=鬼友達 [ 旧地獄街道を行く ]
TTITLE3=蒼き空の揺りかご [ 天空の花の都 ]
TTITLE4=D.S.F.S [ ヴォヤージュ1969 ]
TTITLE5=里帰り [ シンデレラゲージ～kagomekagome ]
TTITLE6=Summer memories from 8801mk2SR [ 車椅子の未来宇宙 ]
TTITLE7=賢者は眠らない～Vampire Breeder～ [ ラクトガール～少女密室 ]
TTITLE8=Summer '81 [ 魔法少女十字軍 ]
TTITLE9=今昔幻想郷～Flower Land（HyperMix） [ 今昔幻想郷～Flower Land ]
TTITLE10=ParameTRICK GHOST [ 幽霊楽団～Phantom Ensemble ]
TTITLE11=境界線 [ 懐かしき東方の血～Old World ]
TTITLE12=Tricky Night [ エクステンドアッシュ～蓬莱人 ]
TTITLE13=マーメードの伝説 [ 信仰は儚き人間の為に ]
EXTD=YEAR: 2008
EXTT0=
EXTT1=
EXTT2=
EXTT3=
EXTT4=
EXTT5=
EXTT6=
EXTT7=
EXTT8=
EXTT9=
EXTT10=
EXTT11=
EXTT12=
EXTT13=
PLAYORDER=
